<svg width="60" height="60" viewBox="0 0 60 60" fill="none" xmlns="http://www.w3.org/2000/svg">
<g clip-path="url(#clip0_257_254)">
<path d="M49.2929 4.29289C49.4804 4.10536 49.7348 4 50 4C50.2652 4 50.5196 4.10536 50.7071 4.29289C50.8946 4.48043 51 4.73478 51 5V55C51 55.2652 50.8946 55.5196 50.7071 55.7071C50.5196 55.8946 50.2652 56 50 56C49.7348 56 49.4804 55.8946 49.2929 55.7071C49.1054 55.5196 49 55.2652 49 55V5C49 4.73478 49.1054 4.48043 49.2929 4.29289Z" stroke="#1B254B" stroke-width="3"/>
<path d="M20 9H40C40.2652 9 40.5196 9.10536 40.7071 9.29289C40.8946 9.48043 41 9.73478 41 10V25C41 25.2652 40.8946 25.5196 40.7071 25.7071C40.5196 25.8946 40.2652 26 40 26H20C19.7348 26 19.4804 25.8946 19.2929 25.7071C19.1054 25.5196 19 25.2652 19 25V10C19 9.73478 19.1054 9.48043 19.2929 9.29289C19.4804 9.10536 19.7348 9 20 9Z" stroke="#1B254B" stroke-width="3"/>
<path d="M10 34H40C40.2652 34 40.5196 34.1054 40.7071 34.2929C40.8946 34.4804 41 34.7348 41 35V50C41 50.2652 40.8946 50.5196 40.7071 50.7071C40.5196 50.8946 40.2652 51 40 51H10C9.73478 51 9.48043 50.8946 9.29289 50.7071C9.10536 50.5196 9 50.2652 9 50V35C9 34.7348 9.10536 34.4804 9.29289 34.2929C9.48043 34.1054 9.73478 34 10 34Z" stroke="#1B254B" stroke-width="3"/>
</g>
<defs>
<clipPath id="clip0_257_254">
<rect width="60" height="60" fill="white"/>
</clipPath>
</defs>
</svg>
