<svg width="60" height="60" viewBox="0 0 60 60" fill="none" xmlns="http://www.w3.org/2000/svg">
<path fill-rule="evenodd" clip-rule="evenodd" d="M8.4375 4.0625C9.47303 4.0625 10.3125 4.90198 10.3125 5.9375V55.9375C10.3125 56.973 9.47303 57.8125 8.4375 57.8125C7.40198 57.8125 6.5625 56.973 6.5625 55.9375V5.9375C6.5625 4.90198 7.40198 4.0625 8.4375 4.0625Z" fill="#1B254B"/>
<path d="M18.4375 19.6875C18.4375 17.351 18.4375 16.1827 18.9399 15.3125C19.269 14.7424 19.7424 14.269 20.3125 13.9399C21.1827 13.4375 22.351 13.4375 24.6875 13.4375H47.1875C49.524 13.4375 50.6922 13.4375 51.5625 13.9399C52.1325 14.269 52.606 14.7424 52.935 15.3125C53.4375 16.1827 53.4375 17.351 53.4375 19.6875C53.4375 22.024 53.4375 23.1923 52.935 24.0625C52.606 24.6326 52.1325 25.106 51.5625 25.435C50.6922 25.9375 49.524 25.9375 47.1875 25.9375H24.6875C22.351 25.9375 21.1827 25.9375 20.3125 25.435C19.7424 25.106 19.269 24.6326 18.9399 24.0625C18.4375 23.1923 18.4375 22.024 18.4375 19.6875Z" fill="#1B254B"/>
<path d="M18.4375 42.1875C18.4375 39.851 18.4375 38.6827 18.9399 37.8125C19.269 37.2425 19.7424 36.769 20.3125 36.44C21.1827 35.9375 22.351 35.9375 24.6875 35.9375H39.6875C42.024 35.9375 43.1922 35.9375 44.0625 36.44C44.6325 36.769 45.106 37.2425 45.435 37.8125C45.9375 38.6827 45.9375 39.851 45.9375 42.1875C45.9375 44.524 45.9375 45.6923 45.435 46.5625C45.106 47.1325 44.6325 47.606 44.0625 47.935C43.1922 48.4375 42.024 48.4375 39.6875 48.4375H24.6875C22.351 48.4375 21.1827 48.4375 20.3125 47.935C19.7424 47.606 19.269 47.1325 18.9399 46.5625C18.4375 45.6923 18.4375 44.524 18.4375 42.1875Z" fill="#1B254B"/>
</svg>
