<svg width="60" height="60" viewBox="0 0 60 60" fill="none" xmlns="http://www.w3.org/2000/svg">
<path fill-rule="evenodd" clip-rule="evenodd" d="M3.125 9.375C3.125 10.4105 3.96448 11.25 5 11.25H55C56.0355 11.25 56.875 10.4105 56.875 9.375C56.875 8.33948 56.0355 7.5 55 7.5H5C3.96448 7.5 3.125 8.33948 3.125 9.375Z" fill="#1B254B"/>
<path d="M18.75 19.375C16.4135 19.375 15.2452 19.375 14.375 19.8774C13.8049 20.2065 13.3315 20.6799 13.0024 21.25C12.5 22.1202 12.5 23.2885 12.5 25.625V48.125C12.5 50.4615 12.5 51.6297 13.0024 52.5C13.3315 53.07 13.8049 53.5435 14.375 53.8725C15.2452 54.375 16.4135 54.375 18.75 54.375C21.0865 54.375 22.2548 54.375 23.125 53.8725C23.6951 53.5435 24.1685 53.07 24.4976 52.5C25 51.6297 25 50.4615 25 48.125V25.625C25 23.2885 25 22.1202 24.4976 21.25C24.1685 20.6799 23.6951 20.2065 23.125 19.8774C22.2548 19.375 21.0865 19.375 18.75 19.375Z" fill="#1B254B"/>
<path d="M41.25 19.375C38.9135 19.375 37.7452 19.375 36.875 19.8774C36.305 20.2065 35.8315 20.6799 35.5025 21.25C35 22.1202 35 23.2885 35 25.625V40.625C35 42.9615 35 44.1297 35.5025 45C35.8315 45.57 36.305 46.0435 36.875 46.3725C37.7452 46.875 38.9135 46.875 41.25 46.875C43.5865 46.875 44.7548 46.875 45.625 46.3725C46.195 46.0435 46.6685 45.57 46.9975 45C47.5 44.1297 47.5 42.9615 47.5 40.625V25.625C47.5 23.2885 47.5 22.1202 46.9975 21.25C46.6685 20.6799 46.195 20.2065 45.625 19.8774C44.7548 19.375 43.5865 19.375 41.25 19.375Z" fill="#1B254B"/>
</svg>
