<svg width="60" height="60" viewBox="0 0 60 60" fill="none" xmlns="http://www.w3.org/2000/svg">
<path fill-rule="evenodd" clip-rule="evenodd" d="M51.5625 4.0625C50.527 4.0625 49.6875 4.90198 49.6875 5.9375V55.9375C49.6875 56.973 50.527 57.8125 51.5625 57.8125C52.598 57.8125 53.4375 56.973 53.4375 55.9375V5.9375C53.4375 4.90198 52.598 4.0625 51.5625 4.0625Z" fill="#1B254B"/>
<path d="M41.5625 19.6875C41.5625 17.351 41.5625 16.1827 41.06 15.3125C40.731 14.7424 40.2575 14.269 39.6875 13.9399C38.8172 13.4375 37.649 13.4375 35.3125 13.4375H12.8125C10.476 13.4375 9.3077 13.4375 8.4375 13.9399C7.86742 14.269 7.39402 14.7424 7.0649 15.3125C6.5625 16.1827 6.5625 17.351 6.5625 19.6875C6.5625 22.024 6.5625 23.1923 7.0649 24.0625C7.39402 24.6326 7.86742 25.106 8.4375 25.435C9.3077 25.9375 10.476 25.9375 12.8125 25.9375H35.3125C37.649 25.9375 38.8172 25.9375 39.6875 25.435C40.2575 25.106 40.731 24.6326 41.06 24.0625C41.5625 23.1923 41.5625 22.024 41.5625 19.6875Z" fill="#1B254B"/>
<path d="M41.5625 42.1875C41.5625 39.851 41.5625 38.6827 41.06 37.8125C40.731 37.2425 40.2575 36.769 39.6875 36.44C38.8172 35.9375 37.649 35.9375 35.3125 35.9375H20.3125C17.976 35.9375 16.8077 35.9375 15.9375 36.44C15.3674 36.769 14.894 37.2425 14.5649 37.8125C14.0625 38.6827 14.0625 39.851 14.0625 42.1875C14.0625 44.524 14.0625 45.6923 14.5649 46.5625C14.894 47.1325 15.3674 47.606 15.9375 47.935C16.8077 48.4375 17.976 48.4375 20.3125 48.4375H35.3125C37.649 48.4375 38.8172 48.4375 39.6875 47.935C40.2575 47.606 40.731 47.1325 41.06 46.5625C41.5625 45.6923 41.5625 44.524 41.5625 42.1875Z" fill="#1B254B"/>
</svg>
