<svg width="60" height="60" viewBox="0 0 60 60" fill="none" xmlns="http://www.w3.org/2000/svg">
<g clip-path="url(#clip0_257_269)">
<path d="M5 9H55C55.2652 9 55.5196 9.10536 55.7071 9.29289C55.8946 9.48043 56 9.73478 56 10C56 10.2652 55.8946 10.5196 55.7071 10.7071C55.5196 10.8946 55.2652 11 55 11H5C4.73478 11 4.48043 10.8946 4.29289 10.7071C4.10536 10.5196 4 10.2652 4 10C4 9.73478 4.10536 9.48043 4.29289 9.29289C4.48043 9.10536 4.73478 9 5 9Z" stroke="#1B254B" stroke-width="3"/>
<path d="M51.0001 41H34.0001V20C34.0001 19.7348 34.1054 19.4804 34.293 19.2929C34.4805 19.1054 34.7348 19 35.0001 19H50.0001C50.2653 19 50.5196 19.1054 50.7072 19.2929C50.8947 19.4804 51.0001 19.7348 51.0001 20V41Z" stroke="#1B254B" stroke-width="3"/>
<path d="M10 19H25C25.2652 19 25.5196 19.1054 25.7071 19.2929C25.8946 19.4804 26 19.7348 26 20V50C26 50.2652 25.8946 50.5196 25.7071 50.7071C25.5196 50.8946 25.2652 51 25 51H10C9.73478 51 9.48043 50.8946 9.29289 50.7071C9.10536 50.5196 9 50.2652 9 50V20C9 19.7348 9.10536 19.4804 9.29289 19.2929C9.48043 19.1054 9.73478 19 10 19Z" stroke="#1B254B" stroke-width="3"/>
</g>
<defs>
<clipPath id="clip0_257_269">
<rect width="60" height="60" fill="white"/>
</clipPath>
</defs>
</svg>
