<svg width="60" height="60" viewBox="0 0 60 60" fill="none" xmlns="http://www.w3.org/2000/svg">
<g clip-path="url(#clip0_257_239)">
<path d="M31 32.5V34H32.5H48.75C49.0152 34 49.2696 34.1054 49.4571 34.2929C49.6446 34.4804 49.75 34.7348 49.75 35V50C49.75 50.2652 49.6446 50.5196 49.4571 50.7071C49.2696 50.8946 49.0152 51 48.75 51H32.5H31V52.5V55C31 55.2652 30.8946 55.5196 30.7071 55.7071C30.5196 55.8946 30.2652 56 30 56C29.7348 56 29.4804 55.8946 29.2929 55.7071C29.1054 55.5196 29 55.2652 29 55V52.5V51H27.5H11.25C10.9848 51 10.7304 50.8946 10.5429 50.7071C10.3554 50.5196 10.25 50.2652 10.25 50V35C10.25 34.7348 10.3554 34.4804 10.5429 34.2929C10.7304 34.1054 10.9848 34 11.25 34H27.5H29V32.5V27.5V26H27.5H18.75C18.4848 26 18.2304 25.8946 18.0429 25.7071C17.8554 25.5196 17.75 25.2652 17.75 25V10C17.75 9.73478 17.8554 9.48043 18.0429 9.29289C18.2304 9.10536 18.4848 9 18.75 9H27.5H29V7.5V5C29 4.73478 29.1054 4.48043 29.2929 4.29289C29.4804 4.10536 29.7348 4 30 4C30.2652 4 30.5196 4.10536 30.7071 4.29289C30.8946 4.48043 31 4.73478 31 5V7.5V9H32.5H41.25C41.5152 9 41.7696 9.10536 41.9571 9.29289C42.1446 9.48043 42.25 9.73478 42.25 10V25C42.25 25.2652 42.1446 25.5196 41.9571 25.7071C41.7696 25.8946 41.5152 26 41.25 26H32.5H31V27.5V32.5Z" stroke="#1B254B" stroke-width="3"/>
</g>
<defs>
<clipPath id="clip0_257_239">
<rect width="60" height="60" fill="white"/>
</clipPath>
</defs>
</svg>
