<svg width="60" height="60" viewBox="0 0 60 60" fill="none" xmlns="http://www.w3.org/2000/svg">
<path fill-rule="evenodd" clip-rule="evenodd" d="M3.125 52.5C3.125 51.4645 3.96448 50.625 5 50.625H55C56.0355 50.625 56.875 51.4645 56.875 52.5C56.875 53.5355 56.0355 54.375 55 54.375H5C3.96448 54.375 3.125 53.5355 3.125 52.5Z" fill="#1B254B"/>
<path d="M18.75 42.5C16.4135 42.5 15.2452 42.5 14.375 41.9975C13.8049 41.6685 13.3315 41.195 13.0024 40.625C12.5 39.7547 12.5 38.5865 12.5 36.25V13.75C12.5 11.4135 12.5 10.2452 13.0024 9.375C13.3315 8.80492 13.8049 8.33152 14.375 8.0024C15.2452 7.5 16.4135 7.5 18.75 7.5C21.0865 7.5 22.2548 7.5 23.125 8.0024C23.6951 8.33152 24.1685 8.80492 24.4976 9.375C25 10.2452 25 11.4135 25 13.75V36.25C25 38.5865 25 39.7547 24.4976 40.625C24.1685 41.195 23.6951 41.6685 23.125 41.9975C22.2548 42.5 21.0865 42.5 18.75 42.5Z" fill="#1B254B"/>
<path d="M41.25 42.5C38.9135 42.5 37.7452 42.5 36.875 41.9975C36.305 41.6685 35.8315 41.195 35.5025 40.625C35 39.7547 35 38.5865 35 36.25V21.25C35 18.9135 35 17.7452 35.5025 16.875C35.8315 16.3049 36.305 15.8315 36.875 15.5024C37.7452 15 38.9135 15 41.25 15C43.5865 15 44.7548 15 45.625 15.5024C46.195 15.8315 46.6685 16.3049 46.9975 16.875C47.5 17.7452 47.5 18.9135 47.5 21.25V36.25C47.5 38.5865 47.5 39.7547 46.9975 40.625C46.6685 41.195 46.195 41.6685 45.625 41.9975C44.7548 42.5 43.5865 42.5 41.25 42.5Z" fill="#1B254B"/>
</svg>
