<svg width="60" height="60" viewBox="0 0 60 60" fill="none" xmlns="http://www.w3.org/2000/svg">
<path d="M18.75 12.5C16.4135 12.5 15.2452 12.5 14.375 13.0024C13.8049 13.3315 13.3315 13.8049 13.0024 14.375C12.5 15.2452 12.5 16.4135 12.5 18.75V28.125H5C3.96448 28.125 3.125 28.9645 3.125 30C3.125 31.0355 3.96448 31.875 5 31.875H12.5V41.25C12.5 43.5865 12.5 44.7547 13.0024 45.625C13.3315 46.195 13.8049 46.6685 14.375 46.9975C15.2452 47.5 16.4135 47.5 18.75 47.5C21.0865 47.5 22.2548 47.5 23.125 46.9975C23.6951 46.6685 24.1685 46.195 24.4976 45.625C25 44.7547 25 43.5865 25 41.25V31.875H35V36.25C35 38.5865 35 39.7547 35.5025 40.625C35.8315 41.195 36.305 41.6685 36.875 41.9975C37.7453 42.5 38.9135 42.5 41.25 42.5C43.5865 42.5 44.7547 42.5 45.625 41.9975C46.195 41.6685 46.6685 41.195 46.9975 40.625C47.5 39.7547 47.5 38.5865 47.5 36.25V31.875H55C56.0355 31.875 56.875 31.0355 56.875 30C56.875 28.9645 56.0355 28.125 55 28.125H47.5V23.75C47.5 21.4135 47.5 20.2452 46.9975 19.375C46.6685 18.8049 46.195 18.3315 45.625 18.0024C44.7547 17.5 43.5865 17.5 41.25 17.5C38.9135 17.5 37.7453 17.5 36.875 18.0024C36.305 18.3315 35.8315 18.8049 35.5025 19.375C35 20.2452 35 21.4135 35 23.75V28.125H25V18.75C25 16.4135 25 15.2452 24.4976 14.375C24.1685 13.8049 23.6951 13.3315 23.125 13.0024C22.2548 12.5 21.0865 12.5 18.75 12.5Z" fill="#1B254B"/>
</svg>
