<svg width="60" height="60" viewBox="0 0 60 60" fill="none" xmlns="http://www.w3.org/2000/svg">
<path d="M47.5 18.75C47.5 16.4135 47.5 15.2452 46.9975 14.375C46.6685 13.8049 46.195 13.3315 45.625 13.0024C44.7547 12.5 43.5865 12.5 41.25 12.5H31.875V5C31.875 3.96448 31.0355 3.125 30 3.125C28.9645 3.125 28.125 3.96448 28.125 5V12.5H18.75C16.4135 12.5 15.2452 12.5 14.375 13.0024C13.8049 13.3315 13.3315 13.8049 13.0024 14.375C12.5 15.2452 12.5 16.4135 12.5 18.75C12.5 21.0865 12.5 22.2548 13.0024 23.125C13.3315 23.6951 13.8049 24.1685 14.375 24.4976C15.2452 25 16.4135 25 18.75 25H28.125V35H23.75C21.4135 35 20.2452 35 19.375 35.5025C18.8049 35.8315 18.3315 36.305 18.0024 36.875C17.5 37.7453 17.5 38.9135 17.5 41.25C17.5 43.5865 17.5 44.7547 18.0024 45.625C18.3315 46.195 18.8049 46.6685 19.375 46.9975C20.2452 47.5 21.4135 47.5 23.75 47.5H28.125V55C28.125 56.0355 28.9645 56.875 30 56.875C31.0355 56.875 31.875 56.0355 31.875 55V47.5H36.25C38.5865 47.5 39.7547 47.5 40.625 46.9975C41.195 46.6685 41.6685 46.195 41.9975 45.625C42.5 44.7547 42.5 43.5865 42.5 41.25C42.5 38.9135 42.5 37.7453 41.9975 36.875C41.6685 36.305 41.195 35.8315 40.625 35.5025C39.7547 35 38.5865 35 36.25 35H31.875V25H41.25C43.5865 25 44.7547 25 45.625 24.4976C46.195 24.1685 46.6685 23.6951 46.9975 23.125C47.5 22.2548 47.5 21.0865 47.5 18.75Z" fill="#1B254B"/>
</svg>
