<svg width="60" height="60" viewBox="0 0 60 60" fill="none" xmlns="http://www.w3.org/2000/svg">
<g clip-path="url(#clip0_257_278)">
<path d="M5 49H55C55.2652 49 55.5196 49.1054 55.7071 49.2929C55.8946 49.4804 56 49.7348 56 50C56 50.2652 55.8946 50.5196 55.7071 50.7071C55.5196 50.8946 55.2652 51 55 51H5C4.73478 51 4.48043 50.8946 4.29289 50.7071C4.10536 50.5196 4 50.2652 4 50C4 49.7348 4.10536 49.4804 4.29289 49.2929C4.48043 49.1054 4.73478 49 5 49Z" stroke="#1B254B" stroke-width="3"/>
<path d="M50 41H35C34.7348 41 34.4804 40.8946 34.2929 40.7071C34.1054 40.5196 34 40.2652 34 40V20C34 19.7348 34.1054 19.4804 34.2929 19.2929C34.4804 19.1054 34.7348 19 35 19H50C50.2652 19 50.5196 19.1054 50.7071 19.2929C50.8946 19.4804 51 19.7348 51 20V40C51 40.2652 50.8946 40.5196 50.7071 40.7071C50.5196 40.8946 50.2652 41 50 41Z" stroke="#1B254B" stroke-width="3"/>
<path d="M25 41H10C9.73478 41 9.48043 40.8946 9.29289 40.7071C9.10536 40.5196 9 40.2652 9 40V10C9 9.73478 9.10536 9.48043 9.29289 9.29289C9.48043 9.10536 9.73478 9 10 9H25C25.2652 9 25.5196 9.10536 25.7071 9.29289C25.8946 9.48043 26 9.73478 26 10V40C26 40.2652 25.8946 40.5196 25.7071 40.7071C25.5196 40.8946 25.2652 41 25 41Z" stroke="#1B254B" stroke-width="3"/>
</g>
<defs>
<clipPath id="clip0_257_278">
<rect width="60" height="60" fill="white"/>
</clipPath>
</defs>
</svg>
