<svg width="60" height="60" viewBox="0 0 60 60" fill="none" xmlns="http://www.w3.org/2000/svg">
<g clip-path="url(#clip0_257_263)">
<path d="M51 27.5V29H52.5H55C55.2652 29 55.5196 29.1054 55.7071 29.2929C55.8946 29.4804 56 29.7348 56 30C56 30.2652 55.8946 30.5196 55.7071 30.7071C55.5196 30.8946 55.2652 31 55 31H52.5H51V32.5V41.25C51 41.5152 50.8946 41.7696 50.7071 41.9571C50.5196 42.1446 50.2652 42.25 50 42.25H35C34.7348 42.25 34.4804 42.1446 34.2929 41.9571C34.1054 41.7696 34 41.5152 34 41.25V32.5V31H32.5H27.5H26V32.5V48.75C26 49.0152 25.8946 49.2696 25.7071 49.4571C25.5196 49.6446 25.2652 49.75 25 49.75H10C9.73478 49.75 9.48043 49.6446 9.29289 49.4571C9.10536 49.2696 9 49.0152 9 48.75V32.5V31H7.5H5C4.73478 31 4.48043 30.8946 4.29289 30.7071C4.10536 30.5196 4 30.2652 4 30C4 29.7348 4.10536 29.4804 4.29289 29.2929C4.48043 29.1054 4.73478 29 5 29H7.5H9V27.5V11.25C9 10.9848 9.10536 10.7304 9.29289 10.5429C9.48043 10.3554 9.73478 10.25 10 10.25H25C25.2652 10.25 25.5196 10.3554 25.7071 10.5429C25.8946 10.7304 26 10.9848 26 11.25V27.5V29H27.5H32.5H34V27.5V18.75C34 18.4848 34.1054 18.2304 34.2929 18.0429C34.4804 17.8554 34.7348 17.75 35 17.75H50C50.2652 17.75 50.5196 17.8554 50.7071 18.0429C50.8946 18.2304 51 18.4848 51 18.75V27.5Z" stroke="#1B254B" stroke-width="3"/>
</g>
<defs>
<clipPath id="clip0_257_263">
<rect width="60" height="60" fill="white"/>
</clipPath>
</defs>
</svg>
