<svg width="60" height="60" viewBox="0 0 60 60" fill="none" xmlns="http://www.w3.org/2000/svg">
<path d="M5 30H12.5M55 30H47.5M35 30L25 30" stroke="#1B254B" stroke-width="3.75" stroke-linecap="round"/>
<path d="M18.75 47.5C16.4134 47.5 15.2452 47.5 14.375 46.9976C13.8049 46.6685 13.3315 46.1951 13.0024 45.625C12.5 44.7548 12.5 43.5866 12.5 41.25L12.5 18.75C12.5 16.4135 12.5 15.2453 13.0024 14.375C13.3315 13.805 13.8049 13.3315 14.375 13.0025C15.2452 12.5 16.4134 12.5 18.75 12.5C21.0866 12.5 22.2548 12.5 23.125 13.0025C23.6951 13.3315 24.1685 13.805 24.4976 14.375C25 15.2453 25 16.4135 25 18.75V41.25C25 43.5866 25 44.7548 24.4976 45.625C24.1685 46.1951 23.6951 46.6685 23.125 46.9976C22.2548 47.5 21.0866 47.5 18.75 47.5Z" stroke="#1B254B" stroke-width="3.75"/>
<path d="M41.25 42.5C38.9135 42.5 37.7453 42.5 36.875 41.9976C36.305 41.6685 35.8315 41.1951 35.5025 40.625C35 39.7548 35 38.5866 35 36.25V23.75C35 21.4135 35 20.2453 35.5025 19.375C35.8315 18.805 36.305 18.3315 36.875 18.0025C37.7453 17.5 38.9135 17.5 41.25 17.5C43.5865 17.5 44.7547 17.5 45.625 18.0025C46.195 18.3315 46.6685 18.805 46.9975 19.375C47.5 20.2453 47.5 21.4135 47.5 23.75V36.25C47.5 38.5866 47.5 39.7548 46.9975 40.625C46.6685 41.1951 46.195 41.6685 45.625 41.9976C44.7547 42.5 43.5865 42.5 41.25 42.5Z" stroke="#1B254B" stroke-width="3.75"/>
</svg>
