<svg width="60" height="60" viewBox="0 0 60 60" fill="none" xmlns="http://www.w3.org/2000/svg">
<path d="M10.7071 4.29289C10.5196 4.10536 10.2652 4 10 4C9.73478 4 9.48043 4.10536 9.29289 4.29289C9.10536 4.48043 9 4.73478 9 5V55C9 55.2652 9.10536 55.5196 9.29289 55.7071C9.48042 55.8946 9.73478 56 10 56C10.2652 56 10.5196 55.8946 10.7071 55.7071C10.8946 55.5196 11 55.2652 11 55V5C11 4.73478 10.8946 4.48043 10.7071 4.29289Z" stroke="#1B254B" stroke-width="3"/>
<path d="M40 9H20C19.7348 9 19.4804 9.10536 19.2929 9.29289C19.1054 9.48043 19 9.73478 19 10V25C19 25.2652 19.1054 25.5196 19.2929 25.7071C19.4804 25.8946 19.7348 26 20 26H40C40.2652 26 40.5196 25.8946 40.7071 25.7071C40.8946 25.5196 41 25.2652 41 25V10C41 9.73478 40.8946 9.48043 40.7071 9.29289C40.5196 9.10536 40.2652 9 40 9Z" stroke="#1B254B" stroke-width="3"/>
<path d="M50 34H20C19.7348 34 19.4804 34.1054 19.2929 34.2929C19.1054 34.4804 19 34.7348 19 35V50C19 50.2652 19.1054 50.5196 19.2929 50.7071C19.4804 50.8946 19.7348 51 20 51H50C50.2652 51 50.5196 50.8946 50.7071 50.7071C50.8946 50.5196 51 50.2652 51 50V35C51 34.7348 50.8946 34.4804 50.7071 34.2929C50.5196 34.1054 50.2652 34 50 34Z" stroke="#1B254B" stroke-width="3"/>
</svg>
