<svg width="825" height="606" viewBox="0 0 825 606" fill="none" xmlns="http://www.w3.org/2000/svg">
<rect x="10" y="10" width="805" height="586" rx="30" fill="white"/>
<rect x="10" y="10" width="805" height="586" rx="30" stroke="#7239EA" stroke-width="20"/>
<path d="M167 265C167 237.386 189.386 215 217 215H607C634.614 215 657 237.386 657 265V340C657 367.614 634.614 390 607 390H217C189.386 390 167 367.614 167 340V265Z" fill="#7239EA"/>
<path d="M260 301C260 295.477 264.477 291 270 291H555C560.523 291 565 295.477 565 301V305C565 310.523 560.523 315 555 315H270C264.477 315 260 310.523 260 305V301Z" fill="white"/>
</svg>
