<svg width="609" height="916" viewBox="0 0 609 916" fill="none" xmlns="http://www.w3.org/2000/svg">
<rect x="7.5" y="7.5" width="594" height="901" rx="12.5" fill="white"/>
<rect x="7.5" y="7.5" width="594" height="901" rx="12.5" stroke="#7239EA" stroke-width="15"/>
<path d="M56 475C56 469.477 60.4772 465 66 465H470C475.523 465 480 469.477 480 475V481C480 486.523 475.523 491 470 491H66C60.4772 491 56 486.523 56 481V475Z" fill="#7239EA"/>
<path d="M56 559C56 553.477 60.4772 549 66 549H351C356.523 549 361 553.477 361 559V563C361 568.523 356.523 573 351 573H66C60.4772 573 56 568.523 56 563V559Z" fill="#7239EA" fill-opacity="0.3"/>
<path d="M53 593C53 587.477 57.4772 583 63 583H546C551.523 583 556 587.477 556 593V597C556 602.523 551.523 607 546 607H63C57.4772 607 53 602.523 53 597V593Z" fill="#7239EA" fill-opacity="0.3"/>
<path d="M56 627C56 621.477 60.4772 617 66 617H456C461.523 617 466 621.477 466 627V631C466 636.523 461.523 641 456 641H66C60.4771 641 56 636.523 56 631V627Z" fill="#7239EA" fill-opacity="0.3"/>
<path d="M56 661C56 655.477 60.4772 651 66 651H312C317.523 651 322 655.477 322 661V665C322 670.523 317.523 675 312 675H66C60.4771 675 56 670.523 56 665V661Z" fill="#7239EA" fill-opacity="0.3"/>
<path d="M56 802C56 782.67 71.67 767 91 767H307C326.33 767 342 782.67 342 802V802C342 821.33 326.33 837 307 837H91C71.67 837 56 821.33 56 802V802Z" fill="#7239EA"/>
<path d="M20 10H589C594.523 10 599 14.4772 599 20V367C599 372.523 594.523 377 589 377H20C14.4772 377 10 372.523 10 367V20C10 14.4772 14.4772 10 20 10Z" fill="#7239EA" fill-opacity="0.2" stroke="#7239EA" stroke-width="20"/>
</svg>
