<svg width="826" height="606" viewBox="0 0 826 606" fill="none" xmlns="http://www.w3.org/2000/svg">
<rect x="10" y="10" width="806" height="586" rx="30" fill="white"/>
<rect x="10" y="10" width="806" height="586" rx="30" stroke="#7239EA" stroke-width="20"/>
<path d="M90.1558 108C90.1558 102.477 94.6329 98 100.156 98H391.838C397.361 98 401.838 102.477 401.838 108V497C401.838 502.523 397.361 507 391.838 507H100.156C94.6329 507 90.1558 502.523 90.1558 497V108Z" fill="#7239EA" fill-opacity="0.3"/>
<path d="M425.021 108C425.021 102.477 429.498 98 435.021 98H726.703C732.226 98 736.703 102.477 736.703 108V497C736.703 502.523 732.226 507 726.703 507H435.021C429.498 507 425.021 502.523 425.021 497V108Z" fill="#7239EA" fill-opacity="0.3"/>
</svg>
