<svg width="825" height="606" viewBox="0 0 825 606" fill="none" xmlns="http://www.w3.org/2000/svg">
<rect x="10" y="10" width="805" height="586" rx="30" fill="white"/>
<rect x="10" y="10" width="805" height="586" rx="30" stroke="#7239EA" stroke-width="20"/>
<path d="M90.0469 108C90.0469 102.477 94.524 98 100.047 98H279.007C284.53 98 289.007 102.477 289.007 108V497C289.007 502.523 284.53 507 279.007 507H100.047C94.524 507 90.0469 502.523 90.0469 497V108Z" fill="#7239EA" fill-opacity="0.3"/>
<path d="M313 108C313 102.477 317.477 98 323 98H726C731.523 98 736 102.477 736 108V497C736 502.523 731.523 507 726 507H323C317.477 507 313 502.523 313 497V108Z" fill="#7239EA" fill-opacity="0.3"/>
</svg>
