<svg width="825" height="606" viewBox="0 0 825 606" fill="none" xmlns="http://www.w3.org/2000/svg">
<rect x="10" y="10" width="805" height="586" rx="30" fill="white"/>
<rect x="10" y="10" width="805" height="586" rx="30" stroke="#7239EA" stroke-width="20"/>
<path d="M90.0469 108C90.0469 102.477 94.524 98 100.047 98H279.007C284.53 98 289.007 102.477 289.007 108V497C289.007 502.523 284.53 507 279.007 507H100.047C94.524 507 90.0469 502.523 90.0469 497V108Z" fill="#7239EA" fill-opacity="0.3"/>
<path d="M313.02 108C313.02 102.477 317.497 98 323.02 98H502.838C508.361 98 512.838 102.477 512.838 108V497C512.838 502.523 508.361 507 502.838 507H323.02C317.497 507 313.02 502.523 313.02 497V108Z" fill="#7239EA" fill-opacity="0.3"/>
<path d="M536.85 108C536.85 102.477 541.327 98 546.85 98H725.811C731.334 98 735.811 102.477 735.811 108V497C735.811 502.523 731.334 507 725.811 507H546.85C541.327 507 536.85 502.523 536.85 497V108Z" fill="#7239EA" fill-opacity="0.3"/>
</svg>
