<svg width="1452" height="602" viewBox="0 0 1452 602" fill="none" xmlns="http://www.w3.org/2000/svg">
<rect x="10" y="10" width="1432" height="582" rx="30" fill="white"/>
<rect x="10" y="10" width="1432" height="582" rx="30" stroke="#7239EA" stroke-width="20"/>
<path d="M873 119L1324 119V482H873L873 119Z" fill="#7239EA" fill-opacity="0.3" stroke="#7239EA" stroke-width="20"/>
<path d="M118 160C118 154.477 122.477 150 128 150H747C752.523 150 757 154.477 757 160V166C757 171.523 752.523 176 747 176H128C122.477 176 118 171.523 118 166V160Z" fill="#7239EA"/>
<path d="M118 236C118 230.477 122.477 226 128 226H413C418.523 226 423 230.477 423 236V240C423 245.523 418.523 250 413 250H128C122.477 250 118 245.523 118 240V236Z" fill="#7239EA" fill-opacity="0.3"/>
<path d="M118 277C118 271.477 122.477 267 128 267H677C682.523 267 687 271.477 687 277V281C687 286.523 682.523 291 677 291H128C122.477 291 118 286.523 118 281V277Z" fill="#7239EA" fill-opacity="0.3"/>
<path d="M118 318C118 312.477 122.477 308 128 308H540C545.523 308 550 312.477 550 318V322C550 327.523 545.523 332 540 332H128C122.477 332 118 327.523 118 322V318Z" fill="#7239EA" fill-opacity="0.3"/>
<path d="M118 417C118 397.67 133.67 382 153 382H369C388.33 382 404 397.67 404 417V417C404 436.33 388.33 452 369 452H153C133.67 452 118 436.33 118 417V417Z" fill="#7239EA"/>
</svg>
