<svg width="1452" height="952" viewBox="0 0 1452 952" fill="none" xmlns="http://www.w3.org/2000/svg">
<rect x="10" y="10" width="1432" height="932" rx="30" fill="white"/>
<rect x="10" y="10" width="1432" height="932" rx="30" stroke="#7239EA" stroke-width="20"/>
<path d="M349 173C349 167.477 353.477 163 359 163H1094C1099.52 163 1104 167.477 1104 173V179C1104 184.523 1099.52 189 1094 189H359C353.477 189 349 184.523 349 179V173Z" fill="#7239EA"/>
<path d="M135 280H493V547H135V280Z" fill="#7239EA" fill-opacity="0.2" stroke="#7239EA" stroke-width="20"/>
<path d="M547 280H905V547H547V280Z" fill="#7239EA" fill-opacity="0.2" stroke="#7239EA" stroke-width="20"/>
<path d="M959 280H1317V547H959V280Z" fill="#7239EA" fill-opacity="0.2" stroke="#7239EA" stroke-width="20"/>
<path d="M202 596C202 590.477 206.477 586 212 586H416C421.523 586 426 590.477 426 596V600C426 605.523 421.523 610 416 610H212C206.477 610 202 605.523 202 600V596Z" fill="#7239EA" fill-opacity="0.3"/>
<path d="M614 120C614 114.477 618.477 110 624 110H828C833.523 110 838 114.477 838 120V124C838 129.523 833.523 134 828 134H624C618.477 134 614 129.523 614 124V120Z" fill="#7239EA" fill-opacity="0.3"/>
<path d="M159 637C159 631.477 163.477 627 169 627H460C465.523 627 470 631.477 470 637V641C470 646.523 465.523 651 460 651H169C163.477 651 159 646.523 159 641V637Z" fill="#7239EA" fill-opacity="0.3"/>
<path d="M181 678C181 672.477 185.477 668 191 668H437C442.523 668 447 672.477 447 678V682C447 687.523 442.523 692 437 692H191C185.477 692 181 687.523 181 682V678Z" fill="#7239EA" fill-opacity="0.3"/>
<path d="M614 596C614 590.477 618.477 586 624 586H828C833.523 586 838 590.477 838 596V600C838 605.523 833.523 610 828 610H624C618.477 610 614 605.523 614 600V596Z" fill="#7239EA" fill-opacity="0.3"/>
<path d="M571 637C571 631.477 575.477 627 581 627H872C877.523 627 882 631.477 882 637V641C882 646.523 877.523 651 872 651H581C575.477 651 571 646.523 571 641V637Z" fill="#7239EA" fill-opacity="0.3"/>
<path d="M593 678C593 672.477 597.477 668 603 668H849C854.523 668 859 672.477 859 678V682C859 687.523 854.523 692 849 692H603C597.477 692 593 687.523 593 682V678Z" fill="#7239EA" fill-opacity="0.3"/>
<path d="M1026 596C1026 590.477 1030.48 586 1036 586H1240C1245.52 586 1250 590.477 1250 596V600C1250 605.523 1245.52 610 1240 610H1036C1030.48 610 1026 605.523 1026 600V596Z" fill="#7239EA" fill-opacity="0.3"/>
<path d="M983 637C983 631.477 987.477 627 993 627H1284C1289.52 627 1294 631.477 1294 637V641C1294 646.523 1289.52 651 1284 651H993C987.477 651 983 646.523 983 641V637Z" fill="#7239EA" fill-opacity="0.3"/>
<path d="M1005 678C1005 672.477 1009.48 668 1015 668H1261C1266.52 668 1271 672.477 1271 678V682C1271 687.523 1266.52 692 1261 692H1015C1009.48 692 1005 687.523 1005 682V678Z" fill="#7239EA" fill-opacity="0.3"/>
<path d="M583 807C583 787.67 598.67 772 618 772H834C853.33 772 869 787.67 869 807V807C869 826.33 853.33 842 834 842H618C598.67 842 583 826.33 583 807V807Z" fill="#7239EA"/>
</svg>
