<svg width="825" height="606" viewBox="0 0 825 606" fill="none" xmlns="http://www.w3.org/2000/svg">
<rect x="10" y="10" width="805" height="586" rx="30" fill="white"/>
<rect x="10" y="10" width="805" height="586" rx="30" stroke="#7239EA" stroke-width="20"/>
<path d="M159 332C159 326.477 163.477 322 169 322H454C459.523 322 464 326.477 464 332V336C464 341.523 459.523 346 454 346H169C163.477 346 159 341.523 159 336V332Z" fill="#7239EA" fill-opacity="0.3"/>
<path d="M159 378C159 372.477 163.477 368 169 368H655C660.523 368 665 372.477 665 378V382C665 387.523 660.523 392 655 392H169C163.477 392 159 387.523 159 382V378Z" fill="#7239EA" fill-opacity="0.3"/>
<path d="M159 424C159 418.477 163.477 414 169 414H617C622.523 414 627 418.477 627 424V428C627 433.523 622.523 438 617 438H169C163.477 438 159 433.523 159 428V424Z" fill="#7239EA" fill-opacity="0.3"/>
<path fill-rule="evenodd" clip-rule="evenodd" d="M167.167 168C171.677 168 175.333 171.641 175.333 176.133V220.867H240.667V176.133C240.667 171.641 244.323 168 248.833 168C253.344 168 257 171.641 257 176.133V229V281.867C257 286.359 253.344 290 248.833 290C244.323 290 240.667 286.359 240.667 281.867V237.133H175.333V281.867C175.333 286.359 171.677 290 167.167 290C162.656 290 159 286.359 159 281.867V229V176.133C159 171.641 162.656 168 167.167 168Z" fill="#7239EA"/>
</svg>
