<svg width="1452" height="602" viewBox="0 0 1452 602" fill="none" xmlns="http://www.w3.org/2000/svg">
<rect x="10" y="10" width="1432" height="582" rx="30" fill="white"/>
<rect x="10" y="10" width="1432" height="582" rx="30" stroke="#7239EA" stroke-width="20"/>
<path d="M461 297C461 291.477 465.477 287 471 287H981C986.523 287 991 291.477 991 297V301C991 306.523 986.523 311 981 311H471C465.477 311 461 306.523 461 301V297Z" fill="#7239EA" fill-opacity="0.3"/>
<path d="M391 256C391 250.477 395.477 246 401 246H1051C1056.52 246 1061 250.477 1061 256V260C1061 265.523 1056.52 270 1051 270H401C395.477 270 391 265.523 391 260V256Z" fill="#7239EA" fill-opacity="0.3"/>
<path d="M435 215C435 209.477 439.477 205 445 205H1007C1012.52 205 1017 209.477 1017 215V219C1017 224.523 1012.52 229 1007 229H445C439.477 229 435 224.523 435 219V215Z" fill="#7239EA" fill-opacity="0.3"/>
<path d="M232 338C232 332.477 236.477 328 242 328H1211C1216.52 328 1221 332.477 1221 338V342C1221 347.523 1216.52 352 1211 352H242C236.477 352 232 347.523 232 342V338Z" fill="#7239EA" fill-opacity="0.3"/>
<path d="M351 379C351 373.477 355.477 369 361 369H1092C1097.52 369 1102 373.477 1102 379V383C1102 388.523 1097.52 393 1092 393H361C355.477 393 351 388.523 351 383V379Z" fill="#7239EA" fill-opacity="0.3"/>
</svg>
