<svg width="825" height="606" viewBox="0 0 825 606" fill="none" xmlns="http://www.w3.org/2000/svg">
<rect x="10" y="10" width="805" height="586" rx="30" fill="white"/>
<rect x="10" y="10" width="805" height="586" rx="30" stroke="#7239EA" stroke-width="20"/>
<path d="M295.455 302.5C295.455 277.705 315.54 257.55 340.25 257.55H398.05V230H340.25C300.368 230 268 262.48 268 302.5C268 342.52 300.368 375 340.25 375H398.05V347.45H340.25C315.54 347.45 295.455 327.295 295.455 302.5ZM354.7 317H470.3V288H354.7V317ZM484.75 230H426.95V257.55H484.75C509.459 257.55 529.545 277.705 529.545 302.5C529.545 327.295 509.459 347.45 484.75 347.45H426.95V375H484.75C524.632 375 557 342.52 557 302.5C557 262.48 524.632 230 484.75 230Z" fill="#7239EA"/>
</svg>
