<svg width="825" height="606" viewBox="0 0 825 606" fill="none" xmlns="http://www.w3.org/2000/svg">
<rect x="10" y="10" width="805" height="586" rx="30" fill="white"/>
<rect x="10" y="10" width="805" height="586" rx="30" stroke="#7239EA" stroke-width="20"/>
<path d="M519.667 189L517.64 189.38L450 215.6L374 189L302.56 213.067C299.9 213.953 298 216.233 298 219.147V410.667C298 414.213 300.787 417 304.333 417L306.36 416.62L374 390.4L450 417L521.44 392.933C524.1 392.047 526 389.767 526 386.853V195.333C526 191.787 523.213 189 519.667 189ZM450 391.667L374 364.94V214.333L450 241.06V391.667Z" fill="#7239EA"/>
</svg>
