<svg width="1329" height="411" viewBox="0 0 1329 411" fill="none" xmlns="http://www.w3.org/2000/svg">
<rect x="10" y="10" width="1309" height="391" rx="30" fill="white"/>
<rect x="10" y="10" width="1309" height="391" rx="30" stroke="#7239EA" stroke-width="20"/>
<path d="M1155 190C1155 184.477 1159.48 180 1165 180H1182C1187.52 180 1192 184.477 1192 190V222C1192 227.523 1187.52 232 1182 232H1165C1159.48 232 1155 227.523 1155 222V190Z" fill="#7239EA"/>
<path d="M1103 190C1103 184.477 1107.48 180 1113 180H1130C1135.52 180 1140 184.477 1140 190V222C1140 227.523 1135.52 232 1130 232H1113C1107.48 232 1103 227.523 1103 222V190Z" fill="#7239EA"/>
<path d="M138 206C138 202.686 140.686 200 144 200H203C206.314 200 209 202.686 209 206V206C209 209.314 206.314 212 203 212H144C140.686 212 138 209.314 138 206V206Z" fill="#7239EA" fill-opacity="0.3"/>
<path d="M138 186C138 182.686 140.686 180 144 180H203C206.314 180 209 182.686 209 186V186C209 189.314 206.314 192 203 192H144C140.686 192 138 189.314 138 186V186Z" fill="#7239EA" fill-opacity="0.3"/>
<path d="M138 226C138 222.686 140.686 220 144 220H203C206.314 220 209 222.686 209 226V226C209 229.314 206.314 232 203 232H144C140.686 232 138 229.314 138 226V226Z" fill="#7239EA" fill-opacity="0.3"/>
<path d="M617 205.5C617 178.714 638.714 157 665.5 157V157C692.286 157 714 178.714 714 205.5V205.5C714 232.286 692.286 254 665.5 254V254C638.714 254 617 232.286 617 205.5V205.5Z" fill="#7239EA"/>
</svg>
