<svg width="1329" height="411" viewBox="0 0 1329 411" fill="none" xmlns="http://www.w3.org/2000/svg">
<rect x="10" y="10" width="1309" height="391" rx="30" fill="white"/>
<rect x="10" y="10" width="1309" height="391" rx="30" stroke="#7239EA" stroke-width="20"/>
<path d="M946 197C946 191.477 950.477 187 956 187H1065C1070.52 187 1075 191.477 1075 197V216C1075 221.523 1070.52 226 1065 226H956C950.477 226 946 221.523 946 216V197Z" fill="#7239EA" fill-opacity="0.3"/>
<path d="M1183 190C1183 184.477 1187.48 180 1193 180H1211C1216.52 180 1221 184.477 1221 190V222C1221 227.523 1216.52 232 1211 232H1193C1187.48 232 1183 227.523 1183 222V190Z" fill="#7239EA"/>
<path d="M1129 190C1129 184.477 1133.48 180 1139 180H1157C1162.52 180 1167 184.477 1167 190V222C1167 227.523 1162.52 232 1157 232H1139C1133.48 232 1129 227.523 1129 222V190Z" fill="#7239EA"/>
<path d="M763 197C763 191.477 767.477 187 773 187H912C917.523 187 922 191.477 922 197V216C922 221.523 917.523 226 912 226H773C767.477 226 763 221.523 763 216V197Z" fill="#7239EA" fill-opacity="0.3"/>
<path d="M652 197C652 191.477 656.477 187 662 187H729C734.523 187 739 191.477 739 197V216C739 221.523 734.523 226 729 226H662C656.477 226 652 221.523 652 216V197Z" fill="#7239EA" fill-opacity="0.3"/>
<path d="M500 197C500 191.477 504.477 187 510 187H619C624.523 187 629 191.477 629 197V216C629 221.523 624.523 226 619 226H510C504.477 226 500 221.523 500 216V197Z" fill="#7239EA" fill-opacity="0.3"/>
<path d="M109 205.5C109 178.714 130.714 157 157.5 157V157C184.286 157 206 178.714 206 205.5V205.5C206 232.286 184.286 254 157.5 254V254C130.714 254 109 232.286 109 205.5V205.5Z" fill="#7239EA"/>
</svg>
