<svg width="1329" height="411" viewBox="0 0 1329 411" fill="none" xmlns="http://www.w3.org/2000/svg">
<rect x="10" y="10" width="1309" height="391" rx="30" fill="white"/>
<rect x="10" y="10" width="1309" height="391" rx="30" stroke="#7239EA" stroke-width="20"/>
<path d="M823 197C823 191.477 827.477 187 833 187H939C944.523 187 949 191.477 949 197V216C949 221.523 944.523 226 939 226H833C827.477 226 823 221.523 823 216V197Z" fill="#7239EA" fill-opacity="0.3"/>
<path d="M1159 190C1159 184.477 1163.48 180 1169 180H1186C1191.52 180 1196 184.477 1196 190V222C1196 227.523 1191.52 232 1186 232H1169C1163.48 232 1159 227.523 1159 222V190Z" fill="#7239EA"/>
<path d="M1106 190C1106 184.477 1110.48 180 1116 180H1133C1138.52 180 1143 184.477 1143 190V222C1143 227.523 1138.52 232 1133 232H1116C1110.48 232 1106 227.523 1106 222V190Z" fill="#7239EA"/>
<path d="M644 197C644 191.477 648.477 187 654 187H790C795.523 187 800 191.477 800 197V216C800 221.523 795.523 226 790 226H654C648.477 226 644 221.523 644 216V197Z" fill="#7239EA" fill-opacity="0.3"/>
<path d="M537 197C537 191.477 541.477 187 547 187H610C615.523 187 620 191.477 620 197V216C620 221.523 615.523 226 610 226H547C541.477 226 537 221.523 537 216V197Z" fill="#7239EA" fill-opacity="0.3"/>
<path d="M388 197C388 191.477 392.477 187 398 187H503C508.523 187 513 191.477 513 197V216C513 221.523 508.523 226 503 226H398C392.477 226 388 221.523 388 216V197Z" fill="#7239EA" fill-opacity="0.3"/>
<path d="M133 206.5C133 179.714 154.714 158 181.5 158V158C208.286 158 230 179.714 230 206.5V206.5C230 233.286 208.286 255 181.5 255V255C154.714 255 133 233.286 133 206.5V206.5Z" fill="#7239EA"/>
</svg>
