<svg width="825" height="606" viewBox="0 0 825 606" fill="none" xmlns="http://www.w3.org/2000/svg">
<rect x="10" y="10" width="805" height="586" rx="30" fill="white"/>
<rect x="10" y="10" width="805" height="586" rx="30" stroke="#7239EA" stroke-width="20"/>
<path d="M159 255C159 249.477 163.477 245 169 245H655C660.523 245 665 249.477 665 255V259C665 264.523 660.523 269 655 269H169C163.477 269 159 264.523 159 259V255Z" fill="#7239EA" fill-opacity="0.3"/>
<path d="M159 301C159 295.477 163.477 291 169 291H655C660.523 291 665 295.477 665 301V305C665 310.523 660.523 315 655 315H169C163.477 315 159 310.523 159 305V301Z" fill="#7239EA" fill-opacity="0.3"/>
<path d="M159 347C159 341.477 163.477 337 169 337H454C459.523 337 464 341.477 464 347V351C464 356.523 459.523 361 454 361H169C163.477 361 159 356.523 159 351V347Z" fill="#7239EA" fill-opacity="0.3"/>
</svg>
