<svg width="825" height="606" viewBox="0 0 825 606" fill="none" xmlns="http://www.w3.org/2000/svg">
<rect x="10" y="10" width="805" height="586" rx="30" fill="white"/>
<rect x="10" y="10" width="805" height="586" rx="30" stroke="#7239EA" stroke-width="20"/>
<path d="M372.333 191C364.007 190.999 356.224 190.997 349.865 191.949C342.681 193.023 335.301 195.563 329.402 202.125C323.7 208.468 321.687 216.027 320.814 223.247C319.999 229.995 319.999 238.361 320 247.808V258.87C320 266.901 326.504 273.413 334.526 273.413C342.549 273.413 349.053 266.901 349.053 258.87V248.635C349.053 238.108 349.078 231.53 349.657 226.741C349.928 224.494 350.268 223.199 350.542 222.457C350.774 221.831 350.939 221.647 350.994 221.586L351.01 221.568C351.036 221.536 351.056 221.513 351.23 221.433C351.552 221.285 352.378 220.982 354.157 220.716C358.11 220.125 363.678 220.087 373.263 220.087H397.474V384.913H363.579C355.556 384.913 349.053 391.425 349.053 399.457C349.053 407.488 355.556 414 363.579 414H470.105C478.128 414 484.632 407.488 484.632 399.457C484.632 391.425 478.128 384.913 470.105 384.913H426.526V220.087H450.737C460.322 220.087 465.891 220.125 469.844 220.716C471.622 220.982 472.449 221.285 472.77 221.433C472.945 221.513 472.964 221.536 472.991 221.568C473.047 221.629 473.227 221.831 473.458 222.457C473.733 223.199 474.072 224.494 474.343 226.741C474.922 231.53 474.947 238.108 474.947 248.635V258.87C474.947 266.901 481.451 273.413 489.474 273.413C497.496 273.413 504 266.901 504 258.87V247.808C504 238.361 504.002 229.995 503.187 223.247C502.313 216.027 500.301 208.468 494.599 202.125C488.699 195.563 481.32 193.023 474.136 191.949C467.777 190.997 459.993 190.999 451.667 191H372.333Z" fill="#7239EA"/>
</svg>
